<?xml version="1.0" encoding="utf-8"?>
<!DOCTYPE svg PUBLIC "-//W3C//DTD SVG 1.1//EN" "http://www.w3.org/Graphics/SVG/1.1/DTD/svg11.dtd">
<svg version="1.1"
	 xmlns="http://www.w3.org/2000/svg"
	 x="0px" y="0px" width="20px" height="20px" viewBox="0 0 20 20" enable-background="new 0 0 20 20" xml:space="preserve">
    <circle fill="none" stroke="#808080" stroke-width="1.5" stroke-miterlimit="10" cx="9.9" cy="9.9" r="7.8"/>
    <line fill="none" stroke="#808080" stroke-width="2" stroke-linejoin="round" stroke-miterlimit="10" x1="10" y1="1.6" x2="10" y2="0"/>
    <line fill="none" stroke="#808080" stroke-width="2" stroke-linejoin="round" stroke-miterlimit="10" x1="4.1" y1="3.9" x2="2.9" y2="2.8"/>
    <line fill="none" stroke="#808080" stroke-width="2" stroke-linejoin="round" stroke-miterlimit="10" x1="6.8" y1="2.2" x2="6.2" y2="0.7"/>
    <line fill="none" stroke="#808080" stroke-width="2" stroke-linejoin="round" stroke-miterlimit="10" x1="2.2" y1="6.6" x2="0.7" y2="6"/>
    <line fill="none" stroke="#808080" stroke-width="2" stroke-linejoin="round" stroke-miterlimit="10" x1="1.6" y1="10" x2="0" y2="10"/>
    <line fill="none" stroke="#808080" stroke-width="2" stroke-linejoin="round" stroke-miterlimit="10" x1="3.9" y1="15.7" x2="2.7" y2="16.9"/>
    <line fill="none" stroke="#808080" stroke-width="2" stroke-linejoin="round" stroke-miterlimit="10" x1="2.1" y1="13" x2="0.6" y2="13.6"/>
    <line fill="none" stroke="#808080" stroke-width="2" stroke-linejoin="round" stroke-miterlimit="10" x1="6.6" y1="17.6" x2="5.9" y2="19.1"/>
    <line fill="none" stroke="#808080" stroke-width="2" stroke-linejoin="round" stroke-miterlimit="10" x1="10" y1="18.4" x2="10" y2="20"/>
    <line fill="none" stroke="#808080" stroke-width="2" stroke-linejoin="round" stroke-miterlimit="10" x1="15.7" y1="15.9" x2="16.8" y2="17.1"/>
    <line fill="none" stroke="#808080" stroke-width="2" stroke-linejoin="round" stroke-miterlimit="10" x1="12.9" y1="17.7" x2="13.5" y2="19.2"/>
    <line fill="none" stroke="#808080" stroke-width="2" stroke-linejoin="round" stroke-miterlimit="10" x1="17.5" y1="13.2" x2="19" y2="13.9"/>
    <line fill="none" stroke="#808080" stroke-width="2" stroke-linejoin="round" stroke-miterlimit="10" x1="18.4" y1="10" x2="20" y2="10"/>
    <line fill="none" stroke="#808080" stroke-width="2" stroke-linejoin="round" stroke-miterlimit="10" x1="15.9" y1="4.1" x2="17" y2="3"/>
    <line fill="none" stroke="#808080" stroke-width="2" stroke-linejoin="round" stroke-miterlimit="10" x1="17.6" y1="6.9" x2="19.1" y2="6.3"/>
    <line fill="none" stroke="#808080" stroke-width="2" stroke-linejoin="round" stroke-miterlimit="10" x1="13.2" y1="2.3" x2="13.8" y2="0.8"/>
</svg>